# xmcd
#
# Track frame offsets: 
#        150
#        13917
#        27292
#        40102
#        54060
#        64710
#        76385
#        89345
#        101860
#        116147
#        127645
#        140357
#        149500
#        162890
#        174520
#        187720
#        202372
#        216300
#
# Disc length: 3038 seconds
#
# Revision: 1
# Processed by: cddbd v1.5.2PL0 Copyright (c) Steve Scherf et al.
# Submitted via: ExactAudioCopy v0.99pb4
#
DISCID=fa0bdc12
DTITLE=B.B. King - Only Original Hits
DYEAR=2004
DGENRE=Blues
TTITLE0=3 o'clock Blues
TTITLE1=Woke up this morning
TTITLE2=Please love me
TTITLE3=Blind love
TTITLE4=Don't you want a man like me
TTITLE5=Heard workin' woman
TTITLE6=Some day some where
TTITLE7=Highway Bound
TTITLE8=Why did you leave me
TTITLE9=You didn't want me
TTITLE10=Boogie woogie woman
TTITLE11=My baby's gone
TTITLE12=Story from my heart and soul
TTITLE13=She's a mean woman
TTITLE14=Neighborhood affair
TTITLE15=Past day
TTITLE16=You know I love you
TTITLE17=Shake it up and go
EXTD=A and R Productions \n2004 \nGBX021-b
EXTT0=
EXTT1=
EXTT2=
EXTT3=
EXTT4=
EXTT5=
EXTT6=
EXTT7=
EXTT8=
EXTT9=
EXTT10=
EXTT11=
EXTT12=
EXTT13=
EXTT14=
EXTT15=
EXTT16=
EXTT17=
PLAYORDER=
